<?xml version="1.0"?>
<svg width="80px" height="80px" viewBox="0 0 272.35216 313.38947" xmlns="http://www.w3.org/2000/svg">
  <title>Twenty-Sided Dice</title>
  <g>
    <path fill="currentColor" id="path3922" d="m133.235519,0.000732c-0.570435,0.019409 -1.226135,0.228119 -1.585358,0.73175l-80.673096,96.527374c-1.342438,1.680634 -1.433136,2.055695 0.365906,2.073242l161.590149,-0.426941c2.220795,-0.181458 2.23056,-0.07019 0.792664,-1.951263l-79.270691,-96.527222c-0.16391,-0.255219 -0.648743,-0.440949 -1.219574,-0.426941zm15.488403,8.597931l72.746124,88.47818c0.974426,1.181702 1.211914,1.24884 2.926971,0.426941l38.35463,-17.561523c2.512329,-1.133881 2.164185,-1.366089 0.487823,-2.500153l-114.515518,-68.843445l-0.000031,0zm-33.964417,3.231689c-0.033997,-0.072205 -0.625488,0.369965 -1.951324,1.28064l-105.612823,69.514282l33.049713,15.000458c1.724121,0.56842 2.239166,0.598846 3.353638,-0.792786l69.697418,-83.234161c0.982361,-1.136597 1.496124,-1.696228 1.463409,-1.768433l-0.000031,0zm33.415619,35.244965c4.668457,0.000214 8.405914,1.609619 11.158844,4.817322c2.751678,3.191711 4.304688,7.751862 4.695374,13.658966c0.389221,5.891296 -0.598328,10.451233 -2.927032,13.658936c-2.329834,3.191711 -5.819611,4.756226 -10.488068,4.756226c-4.684601,0 -8.407227,-1.564514 -11.158966,-4.756226c-2.752716,-3.207703 -4.305756,-7.767639 -4.69516,-13.658936c-0.390717,-5.907104 0.597046,-10.467255 2.92688,-13.658966c2.328705,-3.207703 5.803436,-4.817108 10.488129,-4.817322zm-30.671783,0.365875c4.255798,0.000183 7.446655,0.931335 9.512512,2.804962c2.081696,1.87381 2.825623,4.45459 2.317078,7.805115c-0.293945,1.937439 -1.061218,3.743927 -2.317078,5.427094c-1.253448,1.667358 -3.683014,3.957764 -7.317261,6.768402l-8.597748,6.646637l15.610229,0l-0.975647,6.70752l-25.854401,0l1.03656,-6.70752l14.695618,-11.463745c1.318054,-1.048035 2.341064,-2.048462 3.048828,-3.048889c0.70755,-1.000427 1.116547,-2.090973 1.280426,-3.170837c0.253113,-1.667358 -0.064209,-3.00827 -1.036407,-4.024506c-0.95755,-1.016205 -2.410645,-1.524323 -4.268555,-1.524536c-1.42926,0.000214 -3.0242,0.356506 -4.817291,0.975647c-1.79071,0.603546 -3.733307,1.476349 -5.853851,2.683014l1.158691,-7.805115c2.167908,-0.68277 4.271973,-1.175079 6.341705,-1.524353c2.072021,-0.365265 4.099365,-0.548706 6.036591,-0.548889zm31.098633,5.914917c-1.969086,0 -3.30365,0.917877 -4.024536,2.743896c-0.721985,1.810394 -0.964722,4.944336 -0.670715,9.390503c0.297028,4.493988 0.926819,7.609619 1.890167,9.45163c0.96344,1.84201 2.421448,2.804932 4.390442,2.804932c1.953247,0 3.304688,-0.962921 4.024506,-2.804932c0.719788,-1.84201 0.967834,-4.957642 0.670807,-9.45163c-0.294098,-4.446167 -0.92926,-7.580109 -1.890381,-9.390503c-0.946381,-1.826019 -2.421387,-2.743896 -4.390289,-2.743896zm-87.685699,4.939087c0.845428,0 1.439148,0.2117 1.707306,0.670837c0.530518,0.913208 -0.14035,2.693726 -1.951172,5.42691c-1.816528,2.742889 -3.902649,5.07486 -6.28067,6.951416c-2.384338,1.87146 -5.021667,3.279694 -7.866119,4.20755c-1.844849,0.601776 -3.117737,0.759613 -3.841431,0.426727c-0.730347,-0.337952 -0.898682,-1.181885 -0.487854,-2.439087c-1.374237,1.453308 -2.809601,2.71402 -4.329498,3.719696c-1.519684,1.005524 -3.068024,1.786438 -4.69516,2.317139c-2.421753,0.789917 -3.880157,0.73233 -4.268402,-0.183411c-0.38855,-0.915131 0.308044,-2.670898 2.012115,-5.244049c1.69165,-2.55423 3.583313,-4.720917 5.731964,-6.463623c2.135742,-1.738586 4.456146,-2.986603 6.890503,-3.780579c1.627136,-0.530762 2.762451,-0.670441 3.414734,-0.365875c0.658417,0.295044 0.81134,1.023651 0.487762,2.134125c1.486877,-1.608063 3.058563,-2.962646 4.756348,-4.085388c1.691162,-1.128052 3.45993,-2.020172 5.304901,-2.622131c1.422272,-0.463837 2.569397,-0.668304 3.414673,-0.670654l0,0.000397zm162.748962,1.46344c1.451569,1.214691 2.792847,2.470917 4.024445,3.658661c1.240906,1.187744 2.367554,2.333527 3.353668,3.4758c2.166321,2.509338 3.318207,4.460632 3.414795,5.853821c0.105316,1.402588 -0.83844,2.12085 -2.805084,2.134125c-1.136871,0 -2.466217,-0.331299 -3.963379,-0.914551c-1.488037,-0.583252 -3.85202,-1.778412 -7.134399,-3.65863l-7.805115,-4.451477l7.988159,9.207672l-3.963623,0.060516l-13.171173,-15.244354l3.963531,-0.060516l13.354034,7.622284c1.205353,0.67923 2.239716,1.200623 3.109924,1.524323c0.870178,0.323944 1.622406,0.492126 2.256042,0.487823c0.978577,0 1.440918,-0.367798 1.463593,-1.036499c0.030975,-0.659546 -0.395782,-1.526489 -1.341553,-2.622131c-0.727478,-0.84256 -1.698578,-1.805511 -2.926941,-2.804962c-1.219086,-0.999451 -2.695892,-2.033234 -4.390442,-3.170837l4.573517,-0.060486l0,-0.00058zm-168.175751,4.085602c-0.452515,0.042877 -1.063599,0.136566 -1.768494,0.365845c-1.422058,0.463837 -2.68161,1.110687 -3.78064,1.890228c-1.111633,0.783813 -2.014984,1.674561 -2.682953,2.683014c-0.674194,1.017944 -0.820801,1.712219 -0.426758,2.012329c0.393768,0.30011 1.334473,0.21582 2.743896,-0.243927c1.409363,-0.459717 2.662659,-1.096985 3.780548,-1.890381c1.105286,-0.788879 2.008881,-1.725891 2.683014,-2.743866c0.667999,-1.008453 0.814209,-1.656464 0.426941,-1.951294c-0.200195,-0.144409 -0.523285,-0.16391 -0.975555,-0.121002l0,-0.000946zm-13.232208,4.634277c-0.362396,0.027405 -0.832336,0.118988 -1.402466,0.30481c-1.140289,0.37207 -2.1409,0.927216 -3.048767,1.585388c-0.921021,0.662445 -1.69458,1.408051 -2.256348,2.256287c-0.574219,0.867126 -0.729736,1.436707 -0.426758,1.707336c0.309052,0.261292 1.067566,0.185394 2.195251,-0.183411c1.140289,-0.371918 2.127838,-0.862061 3.048859,-1.524536c0.927032,-0.671844 1.681824,-1.449982 2.255951,-2.317139c0.561859,-0.848236 0.736145,-1.38501 0.427002,-1.646301c-0.154144,-0.130676 -0.430481,-0.210541 -0.792725,-0.183411l0,0.000977zm226.104233,15.610229c-0.328125,0.023499 -0.845947,0.21228 -1.646301,0.548676l-39.391403,17.988464c-1.398651,0.634949 -1.310608,1.49057 -0.792725,2.561066l45.794052,116.161896l-3.292664,-135.308807c-0.101471,-1.479675 -0.122894,-1.990509 -0.670959,-1.951294zm-264.154129,3.597565l-4.207382,131.650391l38.781601,-113.905853c0.572906,-1.68219 0.559418,-1.767273 -0.609802,-2.317139l-33.964417,-15.427399zm210.859924,17.073669l-165.248932,0.426971c-2.361603,-0.035095 -2.263824,-0.033112 -1.097504,1.890198l83.904907,141.528717c1.416962,2.159668 1.265442,2.091736 2.743988,-0.121033l80.612305,-141.772614c0.705566,-1.126099 1.210846,-1.914001 -0.914764,-1.951294l0,-0.000946zm6.585571,3.719727c-0.152252,0.064514 -0.318604,0.638275 -0.792664,1.524353l-81.161041,142.809143c-0.885498,1.507568 -1.096069,2.047913 1.036652,1.707397l128.84523,-17.744324c2.043488,-0.466553 1.981384,-1.197327 1.280701,-3.231934l-48.599167,-123.479187c-0.321503,-1.182892 -0.45694,-1.649414 -0.609711,-1.585419l0,-0.000031zm-178.176117,1.341522c-0.15802,0.113098 -0.30011,0.714966 -0.609802,1.585388l-41.159637,121.162079c-0.700867,2.574158 -0.780121,3.541199 1.8293,4.024536l123.113449,17.80542c2.328003,0.349854 2.030243,-0.822632 1.463379,-1.951294l-83.78302,-141.345673c-0.527313,-1.06778 -0.696381,-1.394012 -0.853668,-1.280426l0,-0.000031zm224.031143,1.585388l0.243866,5.061035l-4.146301,2.683014l0.975525,18.354309l4.146423,-4.085571l0.305054,5.000122l-4.20755,4.024536l-4.451294,2.866028l-1.219574,-23.354462l-1.951172,1.219543l0.060181,1.46347c-0.913147,-0.126862 -1.803116,-0.070313 -2.682938,0.121002c-0.887421,0.210144 -1.723969,0.565674 -2.561066,1.097595c-1.243561,0.790283 -2.181335,1.714417 -2.804932,2.804962c-0.631775,1.095825 -0.918488,2.281036 -0.85376,3.536682c0.065796,1.293915 0.441833,2.030518 1.158569,2.256287c0.709167,0.24353 1.724182,-0.019409 3.048828,-0.853699l1.890472,-1.219543l0.243835,4.756226l-1.951233,1.219543c-1.178528,0.748718 -2.074432,1.623474 -2.622101,2.561096c-0.546997,0.950073 -0.792419,1.991028 -0.731781,3.170837c0.056183,1.090698 0.384186,1.772339 0.975555,2.012146c0.591644,0.239746 1.415131,0.040894 2.439087,-0.609802c0.755951,-0.480164 1.497894,-1.133118 2.256378,-1.890198c0.758423,-0.75708 1.518814,-1.616638 2.256058,-2.622131l0.243866,5.366028c-0.905548,0.994751 -1.782974,1.840637 -2.682999,2.622131c-0.899933,0.781311 -1.805023,1.454468 -2.683014,2.012146c-2.365112,1.502869 -4.132813,2.059387 -5.366028,1.585449c-1.24054,-0.456055 -1.947754,-1.893982 -2.073212,-4.329346c-0.085388,-1.661682 0.103546,-3.212585 0.609741,-4.634277c0.506561,-1.40918 1.303162,-2.713257 2.378174,-3.841675c-1.252838,0.285278 -2.229645,0.035217 -2.926788,-0.792603c-0.704865,-0.809814 -1.061401,-2.134521 -1.158722,-4.024506c-0.144379,-2.815887 0.401489,-5.394928 1.707336,-7.744232c1.30658,-2.33667 3.326233,-4.353119 5.9758,-6.036682c0.934662,-0.593964 1.849854,-1.105377 2.804932,-1.46347c0.195343,-0.075989 0.412506,-0.117035 0.609833,-0.183411l0.060181,-0.060486l12.683334,-8.049011l0.001434,0.000916zm-259.824753,9.878357c0.621689,-0.040894 1.273529,0.161957 2.012207,0.609772c1.628387,0.986359 2.819641,2.835999 3.536621,5.548859c0.045105,0.171722 0.081696,0.372498 0.120972,0.548889l0.243866,-3.231903l8.780823,5.305145l-0.365906,4.451233l-2.865784,-1.707367l-1.28067,15.976135l2.988007,0.609741l-0.304932,4.329529l-3.049011,-0.548889l-3.048859,-1.890198l1.646545,-20.366486l-2.500214,-1.46347c0.374939,2.335846 0.497437,5.026093 0.243927,8.109924c-0.336823,4.097656 -1.145081,6.952576 -2.378021,8.658752c-1.23938,1.71405 -2.754822,2.016296 -4.57341,0.914795c-0.576157,-0.349121 -1.118057,-0.774658 -1.64624,-1.28064c-0.528275,-0.505981 -1.083023,-1.091919 -1.585541,-1.76825l0.365982,-4.573425c0.490479,0.820557 1.012466,1.495117 1.463394,2.01239c0.44989,0.528381 0.893921,0.948303 1.341537,1.219543c0.962387,0.582825 1.753433,0.493835 2.378082,-0.243896c0.623688,-0.726685 1.019836,-2.118713 1.280579,-4.146484c-0.414093,0.318848 -0.828003,0.482971 -1.280579,0.487793c-0.453766,0.019531 -0.954239,-0.11908 -1.463486,-0.426941c-1.281372,-0.776001 -2.20462,-2.126862 -2.86586,-4.085358c-0.667191,-1.962036 -0.929504,-4.182404 -0.731781,-6.585571c0.218399,-2.657867 0.818787,-4.536346 1.8293,-5.609924c0.504868,-0.531342 1.085541,-0.811737 1.707397,-0.853699l0.001053,0zm0.914429,4.451263c-0.227264,0.050598 -0.440048,0.212677 -0.609558,0.487823c-0.345535,0.558044 -0.551483,1.537201 -0.670761,2.987976c-0.11911,1.450775 -0.103302,2.643982 0.121002,3.536682c0.219666,0.90033 0.648804,1.544647 1.219635,1.890198c0.564972,0.342468 0.995834,0.193207 1.341446,-0.365845c0.338989,-0.550262 0.551483,-1.537018 0.670654,-2.987793c0.11911,-1.450775 0.097595,-2.636383 -0.121002,-3.536713c-0.226166,-0.8927 -0.593414,-1.487061 -1.158447,-1.829285c-0.285446,-0.173706 -0.565277,-0.234192 -0.792877,-0.183441l-0.000092,0.000397zm96.832275,9.024658l8.658844,0l0,6.463623l15.793213,0l0,7.866211l-14.268707,21.220093l-10.18335,0l0,-22.439697l-5.061035,0l0,-6.646606l5.061035,0l0,-6.463623zm30.000946,0l24.817963,0l0,6.341675l-8.049042,0l0,22.988586l8.292786,-1.707397l0,6.219727l-8.292786,1.707336l-8.719971,0l0,-29.208252l-8.04895,0l0,-6.341675zm-21.342102,13.110229l0,14.939392l10.06131,-14.939392l-10.06131,0zm-61.282257,26.890991l5.731903,7.805115l-2.683044,1.768433c0.41391,0.093689 0.797089,0.163879 1.219543,0.304749c3.367371,1.135864 6.465576,3.647156 9.268616,7.43927c3.089417,4.180054 4.335358,8.129639 3.719513,11.951599c-0.638092,3.815491 -3.115387,7.13269 -7.378174,9.939453c-4.369049,2.876526 -8.765778,3.836182 -13.232147,2.804932c-4.4888,-1.037903 -8.440186,-3.929504 -11.890594,-8.5979c-1.093475,-1.479492 -2.08606,-2.933594 -2.92688,-4.451294c-0.841003,-1.5177 -1.564545,-3.081848 -2.19519,-4.695374l4.878235,-3.231689c0.477203,1.714417 1.063324,3.264526 1.707306,4.634277c0.631927,1.377625 1.345795,2.631531 2.19519,3.78064c1.82605,2.47052 3.822876,4.001648 5.975739,4.634277c2.140991,0.640381 4.378723,0.37793 6.768372,-0.853699c-1.279144,-0.567017 -2.435699,-1.336853 -3.536621,-2.256226c-1.112732,-0.911682 -2.143677,-2.046509 -3.109711,-3.353699c-2.431335,-3.28949 -3.632843,-6.459717 -3.536774,-9.512451c0.085602,-3.067261 1.401123,-5.447388 3.963531,-7.134521c0.708557,-0.466309 1.452637,-0.818115 2.195099,-1.097595l-3.963379,-5.365967l6.829468,-4.512329zm155.614471,11.280945l6.646423,5.12207l10.610107,24.878784l-5.304993,7.866028l-19.146912,-14.634583l-2.62207,3.902527l-5.670898,-4.329285l2.683044,-3.963623l-5.548981,-4.207397l4.573364,-6.70752l5.487885,4.268433l8.29303,-12.195435zm-151.04126,6.158569c-1.03302,0.068298 -2.132568,0.516724 -3.292755,1.28064c-1.546783,1.018372 -2.396027,2.115784 -2.621948,3.353699c-0.248627,1.231445 0.136536,2.620361 1.219482,4.085571c1.072296,1.450745 2.276825,2.28064 3.597656,2.499939c1.298309,0.212891 2.721619,-0.200989 4.268372,-1.219543c1.547028,-1.018372 2.434601,-2.122375 2.683044,-3.353638c0.226166,-1.237915 -0.148285,-2.634827 -1.219482,-4.085571c-1.082977,-1.465027 -2.299286,-2.287109 -3.597626,-2.5c-0.330414,-0.054688 -0.692322,-0.083923 -1.036743,-0.060425l0,-0.000671zm153.663116,2.622131l-5.243958,7.744019l12.683258,9.75647l-7.439301,-17.500488zm-199.579041,48.842834l120.796265,68.538696c1.564056,0.947876 1.929565,0.602478 1.707336,-1.036621l-2.561066,-48.050171c-0.069702,-1.550659 -0.279816,-2.182129 -1.890137,-2.439087l-118.052399,-17.012817zm249.763626,0.121033l-122.625717,16.951721c-1.618011,0.238464 -1.325897,1.032837 -1.341522,2.19519l2.622101,48.903992c0.134766,1.483887 0.0914,2.015869 1.890167,1.097595l119.454971,-69.148499zm-76.770615,21.098206l8.963715,9.939331l7.012299,-4.146423l1.951263,2.19519l-18.415222,10.914917l-2.987732,1.768372l-18.415253,10.915039l-1.951294,-2.134338l7.01236,-4.146423l-7.134338,-7.805115l-6.58548,4.817261l-1.951355,-2.134216l6.585724,-4.756226l7.500092,-4.451416l9.024658,9.939392l3.963531,-2.378174l2.987823,-1.768372l3.963623,-2.378052l-7.073425,-7.805115l-6.646637,4.817261l-1.890076,-2.134338l6.58548,-4.817078l7.500244,-4.451477zm-80.612335,1.463501c2.372711,0.107788 4.515106,0.927795 6.524689,2.439026c2.231171,1.677979 3.175903,3.487671 2.805084,5.487976c-0.371185,2.000488 -2.0271,4.000488 -4.939301,5.975891c-1.732147,1.174927 -3.521973,1.977539 -5.304993,2.5l2.073212,1.585449l-4.695404,3.170776l-4.146332,-3.109802l1.524414,-1.036621c-2.596985,-0.170288 -4.942657,-1.019714 -7.073334,-2.62207c-0.802307,-0.603271 -1.530121,-1.189819 -2.134308,-1.829285c-0.61203,-0.633972 -1.133087,-1.313416 -1.585388,-2.012268l3.353882,-2.256104c0.355103,0.764648 0.755554,1.408813 1.219482,2.012207c0.471832,0.5979 1.019775,1.175171 1.646301,1.646423c1.314178,0.988342 2.766327,1.49408 4.268402,1.524414c1.510101,0.024658 3.044647,-0.468567 4.695404,-1.402466c-0.924194,-0.116211 -1.77063,-0.304504 -2.561157,-0.609802c-0.790588,-0.305298 -1.507538,-0.702332 -2.195007,-1.219543c-1.749969,-1.315857 -2.620605,-2.789368 -2.622101,-4.329407c0.019104,-1.539673 0.919281,-2.889221 2.682861,-4.08551c1.949615,-1.322327 4.098663,-1.930054 6.463593,-1.829285zm1.036743,3.65863c-0.923645,0.068542 -1.875427,0.44519 -2.92688,1.158569c-1.059784,0.718811 -1.68515,1.41803 -1.829315,2.073181c-0.136627,0.649841 0.203766,1.248962 0.975586,1.829346c0.77179,0.580383 1.584381,0.856384 2.500031,0.792725c0.923492,-0.06958 1.928284,-0.500671 2.987915,-1.219482c1.051636,-0.713379 1.624115,-1.357056 1.768341,-2.012268c0.144409,-0.655273 -0.142426,-1.309875 -0.914612,-1.890442c-0.771973,-0.580261 -1.637421,-0.800781 -2.561066,-0.731628z"/>
  </g>
</svg>